<?xml version="1.0" encoding="UTF-8"?>
<svg viewBox="0 0 36 35" version="1.1" xmlns="http://www.w3.org/2000/svg" xmlns:xlink="http://www.w3.org/1999/xlink">
    <!-- Generator: Sketch 49.2 (51160) - http://www.bohemiancoding.com/sketch -->
    <title>MeetUp</title>
    <desc>Created with Sketch.</desc>
    <defs></defs>
    <g id="Page-1" stroke="none" stroke-width="1" fill="none" fill-rule="evenodd">
        <g id="Social-Icons---Isolated" transform="translate(-282.000000, -1742.000000)" fill="#E51E26">
            <path d="M297.083175,1759.87714 L296.942659,1760.52746 L296.36782,1759.8934 C294.683949,1757.88552 292.098917,1751.73069 290.358143,1748.81004 C289.753111,1747.79623 289.592853,1747.58836 288.121498,1747.52565 C285.790788,1747.42462 283.955949,1747.79275 282.382401,1748.80307 C282.000337,1753.30075 281.384853,1769.0223 283.558788,1773.12049 C284.439046,1774.77881 289.379175,1773.46656 290.644982,1772.67456 C290.746014,1770.11159 290.232724,1767.95972 290.218788,1765.59417 L295.930014,1773.66165 C297.576724,1773.75572 303.200853,1774.02978 303.853498,1772.57585 C304.118272,1771.98475 304.271562,1769.71443 304.308724,1769.08385 C304.398143,1767.57185 304.444595,1766.06449 304.482917,1764.55017 C304.536337,1762.37623 304.495691,1757.93314 304.964853,1756.00772 C305.656982,1756.95649 307.574272,1764.3632 308.070143,1766.12604 C309.083949,1769.7272 310.075691,1772.80927 311.448337,1776.08178 C312.546917,1776.14449 316.580079,1775.18294 317.675175,1774.85778 C316.754272,1770.22656 314.245885,1760.58785 312.988208,1755.59314 C312.179949,1752.38914 311.400724,1749.24088 310.403175,1746.10075 C310.15582,1745.32617 309.918917,1744.5934 309.656466,1743.86991 C309.248853,1742.74927 309.311562,1742.68423 308.104982,1742.43223 C306.374659,1742.07107 304.158917,1741.7912 302.416982,1742.20811 C300.243046,1743.78049 297.136595,1755.90669 297.083175,1759.87714" id="MeetUp"></path>
        </g>
    </g>
</svg>