<svg width="125" height="42" viewBox="0 0 125 42" fill="none" xmlns="http://www.w3.org/2000/svg">
    <path d="M48.0451 14.6901H44.9875C44.864 14.6877 44.7464 14.6419 44.6591 14.5623C44.5718 14.4827 44.5216 14.3754 44.5189 14.2629V13.7477C44.5178 11.5981 45.5904 10.5233 47.7368 10.5233C48.4475 10.5162 49.1518 10.6457 49.8039 10.9034C49.9072 10.946 50.0191 10.9688 50.1324 10.9702C50.2458 10.9717 50.3583 10.9518 50.4629 10.9119C50.5674 10.872 50.6619 10.8128 50.7403 10.7381C50.8186 10.6634 50.8793 10.5748 50.9185 10.4778L52.2087 7.23297C52.2794 7.05617 52.2754 6.8617 52.1973 6.68748C52.1193 6.51325 51.9729 6.37177 51.7867 6.29063C51.2361 6.05161 50.6584 5.86833 50.064 5.74407C49.0754 5.53275 48.0632 5.42733 47.0477 5.42995C44.055 5.42891 41.7352 6.17284 40.0884 7.66174C38.4415 9.15064 37.6181 11.1625 37.6181 13.6975V33.2087C37.6181 34.0638 37.9907 34.884 38.654 35.4887C39.3172 36.0934 40.2167 36.4331 41.1547 36.4331C41.6191 36.4331 42.079 36.3497 42.508 36.1876C42.9371 36.0256 43.327 35.7881 43.6554 35.4887C43.9838 35.1893 44.2443 34.8338 44.422 34.4426C44.5997 34.0514 44.6912 33.6321 44.6912 33.2087V20.085C44.6912 19.9696 44.7415 19.8589 44.831 19.7773C44.9204 19.6958 45.0418 19.6499 45.1684 19.6499H48.0451C48.7665 19.6499 49.4584 19.3886 49.9685 18.9236C50.4786 18.4585 50.7652 17.8277 50.7652 17.17C50.7652 16.5123 50.4786 15.8815 49.9685 15.4164C49.4584 14.9513 48.7665 14.6901 48.0451 14.6901Z" fill="#1890FF"/>
    <path d="M90.8142 24.4437C90.8142 21.111 89.726 18.4933 87.5498 16.5909C85.3736 14.6894 82.3509 13.7392 78.4819 13.7403C74.6129 13.7413 71.5903 14.692 69.4141 16.5924C67.2378 18.4928 66.1497 21.1104 66.1497 24.4453V33.2091C66.1497 34.0643 66.5223 34.8844 67.1855 35.4891C67.8488 36.0938 68.7483 36.4335 69.6862 36.4335C70.6242 36.4335 71.5237 36.0938 72.187 35.4891C72.8502 34.8844 73.2228 34.0643 73.2228 33.2091V24.6526C73.2216 22.8119 73.6597 21.4204 74.5371 20.478C75.4145 19.5357 76.699 19.0645 78.3906 19.0645C80.1144 19.0708 81.4219 19.542 82.313 20.478C83.2042 21.4141 83.6498 22.8056 83.6498 24.6526V33.2075C83.6498 34.0627 84.0224 34.8828 84.6856 35.4875C85.3488 36.0922 86.2484 36.4319 87.1863 36.4319H87.2776C88.2156 36.4319 89.1151 36.0922 89.7783 35.4875C90.4416 34.8828 90.8142 34.0627 90.8142 33.2075V24.4437Z" fill="#1890FF"/>
    <path fill-rule="evenodd" clip-rule="evenodd" d="M117.05 26.6766H100.912C100.854 26.6766 100.796 26.6891 100.744 26.7129C100.692 26.7367 100.647 26.7712 100.612 26.8137C100.577 26.8562 100.554 26.9055 100.543 26.9578C100.533 27.01 100.536 27.0638 100.552 27.1148C100.918 28.2647 101.709 29.2636 102.791 29.9418C104.026 30.7407 105.565 31.1401 107.41 31.1401C108.561 31.1583 109.706 30.9832 110.788 30.6234C111.118 30.5075 111.439 30.37 111.747 30.2119C112.838 29.656 114.405 29.8554 115.253 30.6925L115.291 30.7302C115.578 31.0155 115.792 31.3559 115.916 31.7264C116.039 32.097 116.07 32.4881 116.006 32.871C115.942 33.254 115.784 33.6189 115.545 33.9388C115.305 34.2587 114.99 34.5255 114.622 34.7195C112.626 35.778 110.162 36.3073 107.229 36.3073C104.473 36.3073 102.039 35.8184 99.9285 34.8404C97.9033 33.9372 96.2044 32.524 95.0328 30.7679C93.8844 29.033 93.3102 27.0624 93.3102 24.8563C93.2785 22.7886 93.8664 20.7522 95.0104 18.9666C96.1231 17.235 97.7401 15.8183 99.6822 14.8737C101.662 13.8968 103.875 13.4084 106.321 13.4084C108.709 13.4084 110.87 13.8764 112.805 14.8125C114.716 15.7303 116.298 17.1298 117.361 18.8441C118.465 20.5937 119.017 22.6261 119.017 24.9411V24.9631C118.995 25.4251 118.779 25.8617 118.412 26.1812C118.045 26.5007 117.557 26.6782 117.05 26.6766ZM102.332 19.5257C101.372 20.2617 100.709 21.2689 100.449 22.3873C100.433 22.4506 100.433 22.5162 100.449 22.5794C100.465 22.6426 100.496 22.7018 100.54 22.7525C100.585 22.8032 100.641 22.8441 100.705 22.8722C100.769 22.9004 100.839 22.915 100.91 22.915H111.782C111.853 22.9148 111.923 22.9 111.987 22.8717C112.051 22.8433 112.107 22.8022 112.152 22.7514C112.196 22.7005 112.227 22.6412 112.242 22.5779C112.258 22.5147 112.258 22.449 112.242 22.3858C111.971 21.2779 111.311 20.2808 110.362 19.5462C109.274 18.7085 107.944 18.2897 106.373 18.2897C104.766 18.2866 103.419 18.6986 102.332 19.5257Z" fill="#1890FF"/>
    <path fill-rule="evenodd" clip-rule="evenodd" d="M54.2812 15.092C55.2274 14.229 56.5104 13.7434 57.8487 13.7418C59.1871 13.7434 60.4701 14.229 61.4163 15.092C62.3625 15.955 62.8947 17.1249 62.896 18.3451V31.7107C62.896 32.9312 62.3642 34.1017 61.4177 34.9647C60.4712 35.8277 59.1874 36.3125 57.8487 36.3125C56.5101 36.3125 55.2263 35.8277 54.2798 34.9647C53.3332 34.1017 52.8015 32.9312 52.8015 31.7107V18.3451C52.8028 17.1249 53.335 15.955 54.2812 15.092ZM60.3494 16.0651C59.6862 15.4605 58.7867 15.1207 57.8487 15.1207C57.3843 15.1207 56.9244 15.2041 56.4954 15.3662C56.0663 15.5282 55.6764 15.7657 55.348 16.0651C55.0196 16.3646 54.7591 16.72 54.5814 17.1112C54.4037 17.5024 54.3122 17.9217 54.3122 18.3451V31.7107C54.3122 32.5659 54.6848 33.386 55.348 33.9907C56.0113 34.5954 56.9108 34.9351 57.8487 34.9351C58.7867 34.9351 59.6862 34.5954 60.3494 33.9907C61.0127 33.386 61.3853 32.5659 61.3853 31.7107V18.3451C61.3853 17.49 61.0127 16.6698 60.3494 16.0651Z" fill="#1890FF"/>
    <path d="M60.5393 18.2695C60.5393 19.6244 59.3346 20.7227 57.8486 20.7227C56.3625 20.7227 55.1579 19.6244 55.1579 18.2695C55.1579 16.9146 56.3625 15.8162 57.8486 15.8162C59.3346 15.8162 60.5393 16.9146 60.5393 18.2695Z" fill="#3FDCF7"/>
    <path fill-rule="evenodd" clip-rule="evenodd" d="M9.51003 11.3122C9.51003 8.87129 8.9224 7.71352 10.4884 6.27983H28.1853C30.315 6.85858 34.6398 8.58047 34.9019 10.838C35.295 11.9674 35.2841 14.4936 35.2295 15.6155C35.1749 15.7561 34.9346 16.2749 34.4104 17.2255C33.8862 18.176 32.3354 19.2512 31.6255 19.67L30.1511 20.0889V20.4674C32.248 20.4674 33.4275 21.8224 33.7551 22.4999C35.1967 24.091 35.1203 26.2226 34.9019 27.0895V28.7724C33.9845 31.0978 32.9907 32.3773 32.6084 32.7264L30.1511 34.4169L27.8577 35.8312L13.5781 35.8308L5.41457 35.8312C3.44875 32.1931 5.46917 30.9983 6.72511 30.8557H10.4884L13.5781 11.3122H9.51003ZM17.0457 30.8557L18.3562 23.7238H25.5642C27.0058 23.7238 27.6939 24.9477 27.8577 25.5597V28.1604C27.5847 29.0588 26.3506 30.8557 23.5984 30.8557H17.0457ZM25.5642 17.9103H19.3391L20.5546 11.7908H26.2195C26.984 11.7908 28.513 12.2203 28.513 13.9383V15.4625C28.4037 16.2784 27.6611 17.9103 25.5642 17.9103Z" fill="#3FDCF7"/>
</svg>
